<svg width="16" height="20" viewBox="0 0 16 20" fill="none" xmlns="http://www.w3.org/2000/svg">
<path d="M5.16321 10.6442C4.95063 10.6442 4.77254 10.5723 4.62896 10.4286C4.48538 10.2848 4.41359 10.1067 4.41359 9.89423V3.36343L2.09624 5.68078C1.96099 5.81923 1.79192 5.88845 1.58904 5.88845C1.38615 5.88845 1.20715 5.81672 1.05204 5.67325C0.896903 5.51674 0.819336 5.33784 0.819336 5.13655C0.819336 4.93527 0.896903 4.75707 1.05204 4.60195L4.52126 1.13273C4.61484 1.03915 4.71399 0.973119 4.81869 0.934653C4.92339 0.896186 5.03557 0.876953 5.15524 0.876953C5.27489 0.876953 5.38855 0.896328 5.49624 0.935078C5.60394 0.973845 5.70394 1.03973 5.79624 1.13273L9.29046 4.62695C9.43918 4.77567 9.51258 4.9481 9.51066 5.14425C9.50873 5.3404 9.4302 5.51674 9.27509 5.67325C9.11997 5.81672 8.94434 5.89102 8.74819 5.89615C8.55204 5.90129 8.37639 5.82629 8.22126 5.67115L5.91354 3.36343V9.90385C5.91354 10.1136 5.84164 10.2895 5.69784 10.4314C5.55402 10.5733 5.37581 10.6442 5.16321 10.6442ZM10.8449 19.1134C10.7253 19.1134 10.6116 19.0941 10.5039 19.0553C10.3962 19.0166 10.2962 18.9507 10.2039 18.8577L6.70971 15.3634C6.56099 15.2147 6.48759 15.0423 6.48951 14.8462C6.49144 14.65 6.56997 14.4737 6.72509 14.3172C6.8802 14.1737 7.05584 14.0994 7.25199 14.0942C7.44813 14.0891 7.62378 14.1641 7.77891 14.3192L10.0866 16.627V10.0866C10.0866 9.87679 10.1585 9.70094 10.3023 9.55903C10.4462 9.41713 10.6244 9.34618 10.837 9.34618C11.0495 9.34618 11.2276 9.41805 11.3712 9.5618C11.5148 9.70555 11.5866 9.88367 11.5866 10.0962V16.627L13.9039 14.3096C14.0392 14.1712 14.2083 14.1019 14.4111 14.1019C14.614 14.1019 14.793 14.1737 14.9481 14.3172C15.1033 14.4737 15.1808 14.6526 15.1808 14.8538C15.1808 15.0551 15.1033 15.2333 14.9481 15.3884L11.4789 18.8577C11.3853 18.9513 11.2862 19.0173 11.1815 19.0557C11.0768 19.0942 10.9646 19.1134 10.8449 19.1134Z" fill="white"/>
</svg>
