<svg width="10" height="11" viewBox="0 0 10 11" fill="none" xmlns="http://www.w3.org/2000/svg">
<path d="M5.16321 10.6442C4.95063 10.6442 4.77254 10.5723 4.62896 10.4286C4.48538 10.2848 4.41359 10.1067 4.41359 9.89423V3.36343L2.09624 5.68078C1.96099 5.81923 1.79192 5.88845 1.58904 5.88845C1.38615 5.88845 1.20715 5.81672 1.05204 5.67325C0.896903 5.51674 0.819336 5.33784 0.819336 5.13655C0.819336 4.93527 0.896903 4.75707 1.05204 4.60195L4.52126 1.13273C4.61484 1.03915 4.71399 0.973119 4.81869 0.934653C4.92339 0.896186 5.03557 0.876953 5.15524 0.876953C5.27489 0.876953 5.38855 0.896328 5.49624 0.935078C5.60394 0.973845 5.70394 1.03973 5.79624 1.13273L9.29046 4.62695C9.43918 4.77567 9.51258 4.9481 9.51066 5.14425C9.50873 5.3404 9.4302 5.51674 9.27509 5.67325C9.11997 5.81672 8.94434 5.89102 8.74819 5.89615C8.55204 5.90129 8.37639 5.82629 8.22126 5.67115L5.91354 3.36343V9.90385C5.91354 10.1136 5.84164 10.2895 5.69784 10.4314C5.55402 10.5733 5.37581 10.6442 5.16321 10.6442Z" fill="white"/>
</svg>
