<svg width="10" height="11" viewBox="0 0 10 11" fill="none" xmlns="http://www.w3.org/2000/svg">
<path d="M4.84496 10.1134C4.72531 10.1134 4.61165 10.0941 4.50396 10.0553C4.39626 10.0166 4.29626 9.95068 4.20396 9.85767L0.709739 6.36344C0.561022 6.21474 0.487622 6.04232 0.489539 5.84617C0.491472 5.65002 0.569997 5.47368 0.725113 5.31717C0.88023 5.17368 1.05586 5.09938 1.25201 5.09424C1.44816 5.08913 1.62381 5.16413 1.77894 5.31924L4.08666 7.62697V1.08657C4.08666 0.8768 4.15856 0.700958 4.30236 0.559041C4.44618 0.417141 4.62439 0.346191 4.83699 0.346191C5.04957 0.346191 5.22765 0.418066 5.37124 0.561816C5.51482 0.705566 5.58661 0.883683 5.58661 1.09617V7.62697L7.90396 5.30964C8.03921 5.17118 8.20828 5.10194 8.41116 5.10194C8.61405 5.10194 8.79305 5.17368 8.94816 5.31717C9.1033 5.47368 9.18086 5.65258 9.18086 5.85384C9.18086 6.05513 9.1033 6.23332 8.94816 6.38844L5.47894 9.85767C5.38536 9.95127 5.28621 10.0173 5.18151 10.0557C5.07681 10.0942 4.96463 10.1134 4.84496 10.1134Z" fill="white"/>
</svg>
